<?xml version="1.0" standalone="no"?>
<!DOCTYPE svg PUBLIC "-//W3C//DTD SVG 20010904//EN"
 "http://www.w3.org/TR/2001/REC-SVG-20010904/DTD/svg10.dtd">
<svg version="1.0" xmlns="http://www.w3.org/2000/svg"
 width="500.000000pt" height="500.000000pt" viewBox="0 0 500.000000 500.000000"
 preserveAspectRatio="xMidYMid meet">

<g transform="translate(0.000000,500.000000) scale(0.100000,-0.100000)"
fill="#000000" stroke="none">
<path d="M265 2817 c-3 -7 -4 -152 -3 -322 l3 -310 175 0 c171 0 176 1 232 28
145 71 213 244 161 408 -24 75 -107 159 -186 188 -50 18 -79 21 -218 21 -119
0 -161 -3 -164 -13z m340 -116 c22 -10 54 -34 72 -54 89 -102 61 -265 -57
-324 -37 -19 -60 -23 -142 -23 l-98 0 0 210 0 210 93 0 c67 0 103 -5 132 -19z"/>
<path d="M972 2508 l3 -323 245 0 245 0 3 45 c5 67 -3 70 -205 70 l-173 0 0
65 0 65 146 0 145 0 -3 53 -3 52 -142 3 -143 3 0 89 0 90 183 2 182 3 0 50 0
50 -243 3 -242 2 2 -322z"/>
<path d="M1530 2824 c0 -17 284 -635 297 -645 11 -10 17 -9 28 2 10 10 264
563 292 637 4 9 -12 12 -60 12 l-65 0 -82 -192 c-45 -106 -87 -202 -92 -212
-9 -16 -25 16 -95 180 -47 109 -90 205 -95 212 -11 12 -128 18 -128 6z"/>
<path d="M2260 2505 l0 -325 35 0 34 0 3 113 3 112 197 3 197 2 3 -112 3 -113
35 0 35 0 0 320 0 320 -37 3 -38 3 0 -180 0 -181 -200 0 -200 0 0 180 0 180
-35 0 -35 0 0 -325z"/>
<path d="M2980 2603 c0 -218 1 -230 24 -278 42 -91 142 -155 241 -155 99 0
199 64 241 155 23 48 24 60 24 278 l0 227 -35 0 -35 0 0 -217 c0 -190 -3 -223
-19 -258 -53 -116 -204 -150 -302 -68 -62 53 -69 83 -69 326 l0 217 -35 0 -35
0 0 -227z"/>
<path d="M3682 2508 l3 -323 153 -3 c173 -3 217 5 268 50 59 52 82 121 64 189
-13 47 -63 107 -96 115 -29 7 -31 20 -4 34 50 27 66 127 30 186 -38 61 -85 74
-263 74 l-157 0 2 -322z m314 247 c24 -10 39 -25 50 -51 19 -46 8 -82 -36
-111 -29 -21 -45 -23 -146 -23 l-114 0 0 93 c0 52 3 97 7 100 13 14 203 7 239
-8z m41 -265 c79 -47 89 -136 24 -201 l-39 -39 -136 0 -136 0 0 130 0 130 128
0 c108 0 132 -3 159 -20z"/>
</g>
</svg>
